<?xml version="1.0" standalone="no"?><svg xmlns="http://www.w3.org/2000/svg" viewBox="0 0 1440 320"><path fill="#463200" fill-opacity="1" d="M0,224L40,229.3C80,235,160,245,240,245.3C320,245,400,235,480,240C560,245,640,267,720,240C800,213,880,139,960,128C1040,117,1120,171,1200,181.3C1280,192,1360,160,1400,144L1440,128L1440,320L1400,320C1360,320,1280,320,1200,320C1120,320,1040,320,960,320C880,320,800,320,720,320C640,320,560,320,480,320C400,320,320,320,240,320C160,320,80,320,40,320L0,320Z"></path></svg>